<svg width="18" height="21" viewBox="0 0 18 21" fill="none" xmlns="http://www.w3.org/2000/svg">
<g clip-path="url(#clip0_37_160)">
<path d="M10.0908 3.39771C10.0908 2.7063 9.53223 2.14771 8.84082 2.14771C8.14941 2.14771 7.59082 2.7063 7.59082 3.39771V9.02271H1.96582C1.27441 9.02271 0.71582 9.5813 0.71582 10.2727C0.71582 10.9641 1.27441 11.5227 1.96582 11.5227H7.59082V17.1477C7.59082 17.8391 8.14941 18.3977 8.84082 18.3977C9.53223 18.3977 10.0908 17.8391 10.0908 17.1477V11.5227H15.7158C16.4072 11.5227 16.9658 10.9641 16.9658 10.2727C16.9658 9.5813 16.4072 9.02271 15.7158 9.02271H10.0908V3.39771Z" fill="#9CA3AF"/>
</g>
<defs>
<clipPath id="clip0_37_160">
<path d="M0.0908203 0.272705H17.5908V20.2727H0.0908203V0.272705Z" fill="white"/>
</clipPath>
</defs>
</svg>
