<svg width="22" height="24" viewBox="0 0 22 24" fill="none" xmlns="http://www.w3.org/2000/svg">
<g clip-path="url(#clip0_37_1114)">
<path d="M7.96719 0.253088C8.33281 -0.0890993 8.9 -0.0844118 9.26562 0.257776C10.5594 1.47184 11.7734 2.77965 12.9078 4.19528C13.4234 3.52028 14.0094 2.78434 14.6422 2.18434C15.0125 1.83746 15.5844 1.83746 15.9547 2.18903C17.5766 3.7359 18.95 5.77965 19.9156 7.72028C20.8672 9.63278 21.5 11.5875 21.5 12.9656C21.5 18.9468 16.8219 24 11 24C5.1125 24 0.5 18.9422 0.5 12.9609C0.5 11.1609 1.33438 8.96246 2.62813 6.78746C3.93594 4.57965 5.78281 2.27809 7.96719 0.253088ZM11.0797 19.5C12.2656 19.5 13.3156 19.1718 14.3047 18.5156C16.2781 17.1375 16.8078 14.3812 15.6219 12.2156C15.4109 11.7937 14.8719 11.7656 14.5672 12.1218L13.3859 13.4953C13.0766 13.8515 12.5188 13.8422 12.2281 13.4718C11.4547 12.4875 10.0719 10.7297 9.28437 9.73121C8.98906 9.35621 8.42656 9.35153 8.12656 9.72653C6.54219 11.7187 5.74531 12.975 5.74531 14.3859C5.75 17.5968 8.12187 19.5 11.0797 19.5Z" fill="#F97316"/>
</g>
<defs>
<clipPath id="clip0_37_1114">
<path d="M0.5 0H21.5V24H0.5V0Z" fill="white"/>
</clipPath>
</defs>
</svg>
