<svg width="31" height="31" viewBox="0 0 31 31" fill="none" xmlns="http://www.w3.org/2000/svg">
<path fill-rule="evenodd" clip-rule="evenodd" d="M8.10626 11.1754C8.32831 10.9618 8.62609 10.845 8.93417 10.8509C9.24226 10.8567 9.53542 10.9846 9.74926 11.2064L15.4998 17.3103L21.2503 11.2064C21.3548 11.0912 21.4814 10.9981 21.6225 10.9327C21.7637 10.8673 21.9166 10.8309 22.072 10.8256C22.2275 10.8204 22.3825 10.8464 22.5278 10.9021C22.673 10.9578 22.8056 11.0422 22.9177 11.1501C23.0297 11.258 23.119 11.3873 23.1802 11.5304C23.2413 11.6734 23.2732 11.8273 23.2738 11.9829C23.2744 12.1384 23.2438 12.2925 23.1837 12.4361C23.1237 12.5796 23.0355 12.7096 22.9243 12.8184L16.3368 19.7934C16.2283 19.9059 16.0983 19.9954 15.9545 20.0565C15.8107 20.1177 15.656 20.1492 15.4998 20.1492C15.3435 20.1492 15.1888 20.1177 15.045 20.0565C14.9012 19.9954 14.7712 19.9059 14.6628 19.7934L8.07526 12.8184C7.86162 12.5964 7.74488 12.2986 7.7507 11.9905C7.75651 11.6824 7.8844 11.3893 8.10626 11.1754Z" fill="black"/>
</svg>
