<svg width="13" height="13" viewBox="0 0 13 13" fill="none" xmlns="http://www.w3.org/2000/svg">
<path d="M0.918457 0.0577393H12.1387V12.8809H0.918457V0.0577393Z" stroke="#E5E7EB"/>
<path d="M7.32968 2.06145C7.32968 1.61816 6.97154 1.26001 6.52824 1.26001C6.08494 1.26001 5.72679 1.61816 5.72679 2.06145V5.66796H2.12029C1.67699 5.66796 1.31885 6.0261 1.31885 6.4694C1.31885 6.9127 1.67699 7.27085 2.12029 7.27085H5.72679V10.8773C5.72679 11.3206 6.08494 11.6788 6.52824 11.6788C6.97154 11.6788 7.32968 11.3206 7.32968 10.8773V7.27085H10.9362C11.3795 7.27085 11.7376 6.9127 11.7376 6.4694C11.7376 6.0261 11.3795 5.66796 10.9362 5.66796H7.32968V2.06145Z" fill="white"/>
</svg>
