<svg width="13" height="16" viewBox="0 0 13 16" fill="none" xmlns="http://www.w3.org/2000/svg">
<g clip-path="url(#clip0_37_1944)">
<path d="M10.1781 8.39688C10.1719 7.25 10.6906 6.38437 11.7406 5.74687C11.1531 4.90625 10.2656 4.44375 9.09375 4.35313C7.98438 4.26562 6.77187 5 6.32812 5C5.85938 5 4.78438 4.38438 3.94062 4.38438C2.19687 4.4125 0.34375 5.775 0.34375 8.54688C0.34375 9.36563 0.49375 10.2115 0.79375 11.0844C1.19375 12.2313 2.6375 15.0437 4.14375 14.9969C4.93125 14.9781 5.4875 14.4375 6.5125 14.4375C7.50625 14.4375 8.02187 14.9969 8.9 14.9969C10.4187 14.975 11.725 12.4187 12.1062 11.2688C10.0688 10.3094 10.1781 8.45625 10.1781 8.39688ZM8.40938 3.26562C9.2625 2.25312 9.18437 1.33125 9.15938 1C8.40625 1.04375 7.53437 1.5125 7.0375 2.09063C6.49062 2.70938 6.16875 3.475 6.2375 4.3375C7.05313 4.4 7.79688 3.98125 8.40938 3.26562Z" fill="#374151"/>
</g>
<defs>
<clipPath id="clip0_37_1944">
<path d="M0.21875 0H12.2188V16H0.21875V0Z" fill="white"/>
</clipPath>
</defs>
</svg>
