<svg width="17" height="16" viewBox="0 0 17 16" fill="none" xmlns="http://www.w3.org/2000/svg">
<g clip-path="url(#clip0_37_4331)">
<path d="M14.7188 8C14.7188 6.27609 14.0339 4.62279 12.8149 3.40381C11.596 2.18482 9.94266 1.5 8.21875 1.5C6.49484 1.5 4.84154 2.18482 3.62256 3.40381C2.40357 4.62279 1.71875 6.27609 1.71875 8C1.71875 9.72391 2.40357 11.3772 3.62256 12.5962C4.84154 13.8152 6.49484 14.5 8.21875 14.5C9.94266 14.5 11.596 13.8152 12.8149 12.5962C14.0339 11.3772 14.7188 9.72391 14.7188 8ZM0.21875 8C0.21875 5.87827 1.0616 3.84344 2.5619 2.34315C4.06219 0.842855 6.09702 0 8.21875 0C10.3405 0 12.3753 0.842855 13.8756 2.34315C15.3759 3.84344 16.2188 5.87827 16.2188 8C16.2188 10.1217 15.3759 12.1566 13.8756 13.6569C12.3753 15.1571 10.3405 16 8.21875 16C6.09702 16 4.06219 15.1571 2.5619 13.6569C1.0616 12.1566 0.21875 10.1217 0.21875 8ZM5.525 5.16563C5.77187 4.46875 6.43438 4 7.175 4H8.99687C10.0875 4 10.9688 4.88438 10.9688 5.97188C10.9688 6.67813 10.5906 7.33125 9.97812 7.68437L8.96875 8.2625C8.9625 8.66875 8.62813 9 8.21875 9C7.80312 9 7.46875 8.66562 7.46875 8.25V7.82812C7.46875 7.55937 7.6125 7.3125 7.84688 7.17812L9.23125 6.38438C9.37813 6.3 9.46875 6.14375 9.46875 5.975C9.46875 5.7125 9.25625 5.50313 8.99687 5.50313H7.175C7.06875 5.50313 6.975 5.56875 6.94063 5.66875L6.92812 5.70625C6.79063 6.09688 6.35938 6.3 5.97188 6.1625C5.58438 6.025 5.37813 5.59375 5.51562 5.20625L5.52812 5.16875L5.525 5.16563ZM7.21875 11C7.21875 10.7348 7.32411 10.4804 7.51164 10.2929C7.69918 10.1054 7.95353 10 8.21875 10C8.48397 10 8.73832 10.1054 8.92586 10.2929C9.11339 10.4804 9.21875 10.7348 9.21875 11C9.21875 11.2652 9.11339 11.5196 8.92586 11.7071C8.73832 11.8946 8.48397 12 8.21875 12C7.95353 12 7.69918 11.8946 7.51164 11.7071C7.32411 11.5196 7.21875 11.2652 7.21875 11Z" fill="#6B7280"/>
</g>
<defs>
<clipPath id="clip0_37_4331">
<path d="M0.21875 0H16.2188V16H0.21875V0Z" fill="white"/>
</clipPath>
</defs>
</svg>
