<svg width="15" height="16" viewBox="0 0 15 16" fill="none" xmlns="http://www.w3.org/2000/svg">
<g clip-path="url(#clip0_38_114)">
<path d="M13.7656 0C13.2656 0 9.76562 1 9.76562 5.5V9C9.76562 10.1031 10.6625 11 11.7656 11H12.7656V15C12.7656 15.5531 13.2125 16 13.7656 16C14.3188 16 14.7656 15.5531 14.7656 15V11V7.5V1C14.7656 0.446875 14.3188 0 13.7656 0ZM2.76562 0.5C2.76562 0.24375 2.575 0.03125 2.31875 0.003125C2.0625 -0.025 1.83438 0.14375 1.77813 0.390625L0.83125 4.65C0.7875 4.84688 0.765625 5.04688 0.765625 5.24687C0.765625 6.68125 1.8625 7.85938 3.26562 7.9875V15C3.26562 15.5531 3.7125 16 4.26562 16C4.81875 16 5.26562 15.5531 5.26562 15V7.9875C6.66875 7.85938 7.76562 6.68125 7.76562 5.24687C7.76562 5.04688 7.74375 4.84688 7.7 4.65L6.75313 0.390625C6.69688 0.140625 6.4625 -0.025 6.20937 0.003125C5.95625 0.03125 5.76562 0.24375 5.76562 0.5V4.69375C5.76562 4.8625 5.62812 5 5.45937 5C5.3 5 5.16875 4.87813 5.15312 4.71875L4.7625 0.45625C4.74063 0.196875 4.525 0 4.26562 0C4.00625 0 3.79062 0.196875 3.76875 0.45625L3.38125 4.71875C3.36562 4.87813 3.23438 5 3.075 5C2.90625 5 2.76875 4.8625 2.76875 4.69375V0.5H2.76562ZM4.275 5.25H4.26562H4.25625L4.26562 5.22813L4.275 5.25Z" fill="white"/>
</g>
<defs>
<clipPath id="clip0_38_114">
<path d="M0.765625 0H14.7656V16H0.765625V0Z" fill="white"/>
</clipPath>
</defs>
</svg>
