<svg width="18" height="3" viewBox="0 0 18 3" fill="none" xmlns="http://www.w3.org/2000/svg">
<g clip-path="url(#clip0_38_130)">
<path d="M10.3408 -5.60229C10.3408 -6.2937 9.78223 -6.85229 9.09082 -6.85229C8.39941 -6.85229 7.84082 -6.2937 7.84082 -5.60229V0.0227051H2.21582C1.52441 0.0227051 0.96582 0.581299 0.96582 1.27271C0.96582 1.96411 1.52441 2.52271 2.21582 2.52271H7.84082V8.14771C7.84082 8.83911 8.39941 9.39771 9.09082 9.39771C9.78223 9.39771 10.3408 8.83911 10.3408 8.14771V2.52271H15.9658C16.6572 2.52271 17.2158 1.96411 17.2158 1.27271C17.2158 0.581299 16.6572 0.0227051 15.9658 0.0227051H10.3408V-5.60229Z" fill="#9CA3AF"/>
</g>
<defs>
<clipPath id="clip0_38_130">
<path d="M0.34082 -8.72729H17.8408V11.2727H0.34082V-8.72729Z" fill="white"/>
</clipPath>
</defs>
</svg>
