<svg width="21" height="21" viewBox="0 0 21 21" fill="none" xmlns="http://www.w3.org/2000/svg">
<g clip-path="url(#clip0_37_180)">
<path d="M10.0908 20.2727C12.743 20.2727 15.2865 19.2191 17.1619 17.3438C19.0373 15.4684 20.0908 12.9249 20.0908 10.2727C20.0908 7.62054 19.0373 5.077 17.1619 3.20164C15.2865 1.32627 12.743 0.272705 10.0908 0.272705C7.43866 0.272705 4.89512 1.32627 3.01975 3.20164C1.14439 5.077 0.0908203 7.62054 0.0908203 10.2727C0.0908203 12.9249 1.14439 15.4684 3.01975 17.3438C4.89512 19.2191 7.43866 20.2727 10.0908 20.2727ZM6.72363 6.72974C7.03223 5.85864 7.86035 5.27271 8.78613 5.27271H11.0635C12.4268 5.27271 13.5283 6.37817 13.5283 7.73755C13.5283 8.62036 13.0557 9.43677 12.29 9.87817L11.0283 10.6008C11.0205 11.1086 10.6025 11.5227 10.0908 11.5227C9.57129 11.5227 9.15332 11.1047 9.15332 10.5852V10.0579C9.15332 9.72192 9.33301 9.41333 9.62598 9.24536L11.3564 8.25317C11.54 8.14771 11.6533 7.95239 11.6533 7.74146C11.6533 7.41333 11.3877 7.15161 11.0635 7.15161H8.78613C8.65332 7.15161 8.53613 7.23364 8.49316 7.35864L8.47754 7.40552C8.30566 7.8938 7.7666 8.14771 7.28223 7.97583C6.79785 7.80396 6.54004 7.26489 6.71191 6.78052L6.72754 6.73364L6.72363 6.72974ZM8.84082 14.0227C8.84082 13.6912 8.97252 13.3732 9.20694 13.1388C9.44136 12.9044 9.7593 12.7727 10.0908 12.7727C10.4223 12.7727 10.7403 12.9044 10.9747 13.1388C11.2091 13.3732 11.3408 13.6912 11.3408 14.0227C11.3408 14.3542 11.2091 14.6722 10.9747 14.9066C10.7403 15.141 10.4223 15.2727 10.0908 15.2727C9.7593 15.2727 9.44136 15.141 9.20694 14.9066C8.97252 14.6722 8.84082 14.3542 8.84082 14.0227Z" fill="#6B7280"/>
</g>
<defs>
<clipPath id="clip0_37_180">
<path d="M0.0908203 0.272705H20.0908V20.2727H0.0908203V0.272705Z" fill="white"/>
</clipPath>
</defs>
</svg>
