<svg width="22" height="24" viewBox="0 0 22 24" fill="none" xmlns="http://www.w3.org/2000/svg">
<g clip-path="url(#clip0_37_1896)">
<path d="M8.06094 0.253088C8.42656 -0.0890993 8.99375 -0.0844118 9.35938 0.257776C10.6531 1.47184 11.8672 2.77965 13.0016 4.19528C13.5172 3.52028 14.1031 2.78434 14.7359 2.18434C15.1063 1.83746 15.6781 1.83746 16.0484 2.18903C17.6703 3.7359 19.0438 5.77965 20.0094 7.72028C20.9609 9.63278 21.5938 11.5875 21.5938 12.9656C21.5938 18.9468 16.9156 24 11.0938 24C5.20625 24 0.59375 18.9422 0.59375 12.9609C0.59375 11.1609 1.42813 8.96246 2.72188 6.78746C4.02969 4.57965 5.87656 2.27809 8.06094 0.253088ZM11.1734 19.5C12.3594 19.5 13.4094 19.1718 14.3984 18.5156C16.3719 17.1375 16.9016 14.3812 15.7156 12.2156C15.5047 11.7937 14.9656 11.7656 14.6609 12.1218L13.4797 13.4953C13.1703 13.8515 12.6125 13.8422 12.3219 13.4718C11.5484 12.4875 10.1656 10.7297 9.37812 9.73121C9.08281 9.35621 8.52031 9.35153 8.22031 9.72653C6.63594 11.7187 5.83906 12.975 5.83906 14.3859C5.84375 17.5968 8.21562 19.5 11.1734 19.5Z" fill="#F97316"/>
</g>
<defs>
<clipPath id="clip0_37_1896">
<path d="M0.59375 0H21.5938V24H0.59375V0Z" fill="white"/>
</clipPath>
</defs>
</svg>
