<svg width="17" height="16" viewBox="0 0 17 16" fill="none" xmlns="http://www.w3.org/2000/svg">
<g clip-path="url(#clip0_37_1420)">
<path d="M16.2188 8.18125C16.2188 12.6031 13.1906 15.75 8.71875 15.75C4.43125 15.75 0.96875 12.2875 0.96875 8C0.96875 3.7125 4.43125 0.25 8.71875 0.25C10.8062 0.25 12.5625 1.01562 13.9156 2.27813L11.8062 4.30625C9.04688 1.64375 3.91563 3.64375 3.91563 8C3.91563 10.7031 6.075 12.8938 8.71875 12.8938C11.7875 12.8938 12.9375 10.6938 13.1187 9.55313H8.71875V6.8875H16.0969C16.1687 7.28437 16.2188 7.66562 16.2188 8.18125Z" fill="#374151"/>
</g>
<defs>
<clipPath id="clip0_37_1420">
<path d="M0.96875 0H16.2188V16H0.96875V0Z" fill="white"/>
</clipPath>
</defs>
</svg>
