<svg width="15" height="16" viewBox="0 0 15 16" fill="none" xmlns="http://www.w3.org/2000/svg">
<g clip-path="url(#clip0_37_4539)">
<path d="M8.85938 2.5C8.85938 1.94687 8.4125 1.5 7.85938 1.5C7.30625 1.5 6.85938 1.94687 6.85938 2.5V7H2.35938C1.80625 7 1.35938 7.44688 1.35938 8C1.35938 8.55312 1.80625 9 2.35938 9H6.85938V13.5C6.85938 14.0531 7.30625 14.5 7.85938 14.5C8.4125 14.5 8.85938 14.0531 8.85938 13.5V9H13.3594C13.9125 9 14.3594 8.55312 14.3594 8C14.3594 7.44688 13.9125 7 13.3594 7H8.85938V2.5Z" fill="white"/>
</g>
<defs>
<clipPath id="clip0_37_4539">
<path d="M0.859375 0H14.8594V16H0.859375V0Z" fill="white"/>
</clipPath>
</defs>
</svg>
