<svg width="18" height="21" viewBox="0 0 18 21" fill="none" xmlns="http://www.w3.org/2000/svg">
<g clip-path="url(#clip0_37_165)">
<path d="M1.96582 5.27271C1.27441 5.27271 0.71582 5.8313 0.71582 6.52271C0.71582 7.21411 1.27441 7.77271 1.96582 7.77271H15.7158C16.4072 7.77271 16.9658 7.21411 16.9658 6.52271C16.9658 5.8313 16.4072 5.27271 15.7158 5.27271H1.96582ZM1.96582 12.7727C1.27441 12.7727 0.71582 13.3313 0.71582 14.0227C0.71582 14.7141 1.27441 15.2727 1.96582 15.2727H15.7158C16.4072 15.2727 16.9658 14.7141 16.9658 14.0227C16.9658 13.3313 16.4072 12.7727 15.7158 12.7727H1.96582Z" fill="#9CA3AF"/>
</g>
<defs>
<clipPath id="clip0_37_165">
<path d="M0.0908203 0.272705H17.5908V20.2727H0.0908203V0.272705Z" fill="white"/>
</clipPath>
</defs>
</svg>
