<svg width="18" height="20" viewBox="0 0 18 20" fill="none" xmlns="http://www.w3.org/2000/svg">
<g clip-path="url(#clip0_37_4712)">
<path d="M16.6875 0C16.0625 0 11.6875 1.25 11.6875 6.875V11.25C11.6875 12.6289 12.8086 13.75 14.1875 13.75H15.4375V18.75C15.4375 19.4414 15.9961 20 16.6875 20C17.3789 20 17.9375 19.4414 17.9375 18.75V13.75V9.375V1.25C17.9375 0.558594 17.3789 0 16.6875 0ZM2.9375 0.625C2.9375 0.304688 2.69922 0.0390625 2.37891 0.00390625C2.05859 -0.03125 1.77344 0.179688 1.70312 0.488281L0.519531 5.8125C0.464844 6.05859 0.4375 6.30859 0.4375 6.55859C0.4375 8.35156 1.80859 9.82422 3.5625 9.98438V18.75C3.5625 19.4414 4.12109 20 4.8125 20C5.50391 20 6.0625 19.4414 6.0625 18.75V9.98438C7.81641 9.82422 9.1875 8.35156 9.1875 6.55859C9.1875 6.30859 9.16016 6.05859 9.10547 5.8125L7.92188 0.488281C7.85156 0.175781 7.55859 -0.03125 7.24219 0.00390625C6.92578 0.0390625 6.6875 0.304688 6.6875 0.625V5.86719C6.6875 6.07812 6.51562 6.25 6.30469 6.25C6.10547 6.25 5.94141 6.09766 5.92188 5.89844L5.43359 0.570312C5.40625 0.246094 5.13672 0 4.8125 0C4.48828 0 4.21875 0.246094 4.19141 0.570312L3.70703 5.89844C3.6875 6.09766 3.52344 6.25 3.32422 6.25C3.11328 6.25 2.94141 6.07812 2.94141 5.86719V0.625H2.9375ZM4.82422 6.5625H4.8125H4.80078L4.8125 6.53516L4.82422 6.5625Z" fill="#9CA3AF"/>
</g>
<defs>
<clipPath id="clip0_37_4712">
<path d="M0.4375 0H17.9375V20H0.4375V0Z" fill="white"/>
</clipPath>
</defs>
</svg>
