<svg width="13" height="16" viewBox="0 0 13 16" fill="none" xmlns="http://www.w3.org/2000/svg">
<g clip-path="url(#clip0_37_1153)">
<path d="M10.0531 8.39688C10.0469 7.25 10.5656 6.38437 11.6156 5.74687C11.0281 4.90625 10.1406 4.44375 8.96875 4.35313C7.85938 4.26562 6.64687 5 6.20312 5C5.73438 5 4.65938 4.38438 3.81562 4.38438C2.07187 4.4125 0.21875 5.775 0.21875 8.54688C0.21875 9.36563 0.36875 10.2115 0.66875 11.0844C1.06875 12.2313 2.5125 15.0437 4.01875 14.9969C4.80625 14.9781 5.3625 14.4375 6.3875 14.4375C7.38125 14.4375 7.89687 14.9969 8.775 14.9969C10.2937 14.975 11.6 12.4187 11.9812 11.2688C9.94375 10.3094 10.0531 8.45625 10.0531 8.39688ZM8.28438 3.26562C9.1375 2.25312 9.05937 1.33125 9.03438 1C8.28125 1.04375 7.40937 1.5125 6.9125 2.09063C6.36562 2.70938 6.04375 3.475 6.1125 4.3375C6.92813 4.4 7.67188 3.98125 8.28438 3.26562Z" fill="#374151"/>
</g>
<defs>
<clipPath id="clip0_37_1153">
<path d="M0.09375 0H12.0938V16H0.09375V0Z" fill="white"/>
</clipPath>
</defs>
</svg>
