<svg width="15" height="16" viewBox="0 0 15 16" fill="none" xmlns="http://www.w3.org/2000/svg">
<g clip-path="url(#clip0_37_170)">
<path d="M8.40625 2.5C8.40625 1.94687 7.95937 1.5 7.40625 1.5C6.85313 1.5 6.40625 1.94687 6.40625 2.5V7H1.90625C1.35312 7 0.90625 7.44688 0.90625 8C0.90625 8.55312 1.35312 9 1.90625 9H6.40625V13.5C6.40625 14.0531 6.85313 14.5 7.40625 14.5C7.95937 14.5 8.40625 14.0531 8.40625 13.5V9H12.9062C13.4594 9 13.9062 8.55312 13.9062 8C13.9062 7.44688 13.4594 7 12.9062 7H8.40625V2.5Z" fill="white"/>
</g>
<defs>
<clipPath id="clip0_37_170">
<path d="M0.40625 0H14.4062V16H0.40625V0Z" fill="white"/>
</clipPath>
</defs>
</svg>
