<svg width="13" height="16" viewBox="0 0 13 16" fill="none" xmlns="http://www.w3.org/2000/svg">
<g clip-path="url(#clip0_37_1759)">
<path d="M10.6781 8.39688C10.6719 7.25 11.1906 6.38437 12.2406 5.74687C11.6531 4.90625 10.7656 4.44375 9.59375 4.35313C8.48438 4.26562 7.27187 5 6.82812 5C6.35938 5 5.28438 4.38438 4.44062 4.38438C2.69687 4.4125 0.84375 5.775 0.84375 8.54688C0.84375 9.36563 0.99375 10.2115 1.29375 11.0844C1.69375 12.2313 3.1375 15.0437 4.64375 14.9969C5.43125 14.9781 5.9875 14.4375 7.0125 14.4375C8.00625 14.4375 8.52187 14.9969 9.4 14.9969C10.9187 14.975 12.225 12.4187 12.6062 11.2688C10.5688 10.3094 10.6781 8.45625 10.6781 8.39688ZM8.90938 3.26562C9.7625 2.25312 9.68437 1.33125 9.65938 1C8.90625 1.04375 8.03437 1.5125 7.5375 2.09063C6.99062 2.70938 6.66875 3.475 6.7375 4.3375C7.55313 4.4 8.29688 3.98125 8.90938 3.26562Z" fill="#374151"/>
</g>
<defs>
<clipPath id="clip0_37_1759">
<path d="M0.71875 0H12.7188V16H0.71875V0Z" fill="white"/>
</clipPath>
</defs>
</svg>
