<svg width="21" height="20" viewBox="0 0 21 20" fill="none" xmlns="http://www.w3.org/2000/svg">
<g clip-path="url(#clip0_37_4729)">
<path d="M15.2773 4.13672L20.0742 8.93359C20.3555 9.21484 20.5156 9.60156 20.5156 10C20.5156 10.3984 20.3555 10.7852 20.0742 11.0664L15.2773 15.8633C15.0273 16.1133 14.6914 16.25 14.3398 16.25C13.6094 16.25 13.0156 15.6562 13.0156 14.9258V12.5H8.01562C7.32422 12.5 6.76562 11.9414 6.76562 11.25V8.75C6.76562 8.05859 7.32422 7.5 8.01562 7.5H13.0156V5.07422C13.0156 4.34375 13.6094 3.75 14.3398 3.75C14.6914 3.75 15.0273 3.89062 15.2773 4.13672ZM6.76562 3.75H4.26562C3.57422 3.75 3.01562 4.30859 3.01562 5V15C3.01562 15.6914 3.57422 16.25 4.26562 16.25H6.76562C7.45703 16.25 8.01562 16.8086 8.01562 17.5C8.01562 18.1914 7.45703 18.75 6.76562 18.75H4.26562C2.19531 18.75 0.515625 17.0703 0.515625 15V5C0.515625 2.92969 2.19531 1.25 4.26562 1.25H6.76562C7.45703 1.25 8.01562 1.80859 8.01562 2.5C8.01562 3.19141 7.45703 3.75 6.76562 3.75Z" fill="#9CA3AF"/>
</g>
<defs>
<clipPath id="clip0_37_4729">
<path d="M0.515625 0H20.5156V20H0.515625V0Z" fill="white"/>
</clipPath>
</defs>
</svg>
