<svg width="15" height="16" viewBox="0 0 15 16" fill="none" xmlns="http://www.w3.org/2000/svg">
<g clip-path="url(#clip0_38_56)">
<path d="M10.1406 1.5C10.1406 1.10218 9.98259 0.720644 9.70129 0.43934C9.41998 0.158035 9.03845 0 8.64062 0C8.2428 0 7.86127 0.158035 7.57996 0.43934C7.29866 0.720644 7.14062 1.10218 7.14062 1.5C7.14062 1.89782 7.29866 2.27936 7.57996 2.56066C7.86127 2.84196 8.2428 3 8.64062 3C9.03845 3 9.41998 2.84196 9.70129 2.56066C9.98259 2.27936 10.1406 1.89782 10.1406 1.5ZM4.06875 5.48438C4.37812 5.175 4.8 5 5.24062 5C5.3 5 5.35938 5.00313 5.41563 5.00938L4.44063 7.9375C4.15 8.8125 4.49375 9.775 5.27812 10.2656L7.97188 11.95L7.17812 14.725C7.025 15.2563 7.33437 15.8094 7.86562 15.9625C8.39688 16.1156 8.95 15.8062 9.10312 15.275L10 12.1375C10.1844 11.4937 9.91875 10.8062 9.35312 10.4531L7.57812 9.34375L8.54375 6.76875L8.70312 7.15312C9.17188 8.27187 10.2625 9 11.475 9H12.1406C12.6938 9 13.1406 8.55313 13.1406 8C13.1406 7.44688 12.6938 7 12.1406 7H11.475C11.0719 7 10.7063 6.75625 10.5531 6.38438L10.3562 5.91563C9.9 4.81875 8.97812 3.98125 7.84062 3.63125L6.31875 3.1625C5.97187 3.05625 5.60938 3 5.24375 3C4.275 3 3.34375 3.38438 2.65937 4.07188L1.93438 4.79375C1.54375 5.18437 1.54375 5.81875 1.93438 6.20937C2.325 6.6 2.95937 6.6 3.35 6.20937L4.07188 5.4875L4.06875 5.48438ZM2.99062 11H1.14062C0.5875 11 0.140625 11.4469 0.140625 12C0.140625 12.5531 0.5875 13 1.14062 13H3.31562C3.90937 13 4.44688 12.65 4.6875 12.1094L5.04688 11.3L4.75 11.1125C4.20312 10.7719 3.79688 10.275 3.56562 9.70938L2.99062 11Z" fill="#374151"/>
</g>
<defs>
<clipPath id="clip0_38_56">
<path d="M0.140625 0H14.1406V16H0.140625V0Z" fill="white"/>
</clipPath>
</defs>
</svg>
