<svg width="16" height="16" viewBox="0 0 16 16" fill="none" xmlns="http://www.w3.org/2000/svg">
<g clip-path="url(#clip0_37_1939)">
<path d="M15.7969 8.18125C15.7969 12.6031 12.7688 15.75 8.29688 15.75C4.00938 15.75 0.546875 12.2875 0.546875 8C0.546875 3.7125 4.00938 0.25 8.29688 0.25C10.3844 0.25 12.1406 1.01562 13.4937 2.27813L11.3844 4.30625C8.625 1.64375 3.49375 3.64375 3.49375 8C3.49375 10.7031 5.65312 12.8938 8.29688 12.8938C11.3656 12.8938 12.5156 10.6938 12.6969 9.55313H8.29688V6.8875H15.675C15.7469 7.28437 15.7969 7.66562 15.7969 8.18125Z" fill="#374151"/>
</g>
<defs>
<clipPath id="clip0_37_1939">
<path d="M0.546875 0H15.7969V16H0.546875V0Z" fill="white"/>
</clipPath>
</defs>
</svg>
