<svg width="15" height="16" viewBox="0 0 15 16" fill="none" xmlns="http://www.w3.org/2000/svg">
<g clip-path="url(#clip0_38_53)">
<path d="M13.2656 0C12.7656 0 9.26562 1 9.26562 5.5V9C9.26562 10.1031 10.1625 11 11.2656 11H12.2656V15C12.2656 15.5531 12.7125 16 13.2656 16C13.8188 16 14.2656 15.5531 14.2656 15V11V7.5V1C14.2656 0.446875 13.8188 0 13.2656 0ZM2.26562 0.5C2.26562 0.24375 2.075 0.03125 1.81875 0.003125C1.5625 -0.025 1.33438 0.14375 1.27813 0.390625L0.33125 4.65C0.2875 4.84688 0.265625 5.04688 0.265625 5.24687C0.265625 6.68125 1.3625 7.85938 2.76562 7.9875V15C2.76562 15.5531 3.2125 16 3.76562 16C4.31875 16 4.76562 15.5531 4.76562 15V7.9875C6.16875 7.85938 7.26562 6.68125 7.26562 5.24687C7.26562 5.04688 7.24375 4.84688 7.2 4.65L6.25313 0.390625C6.19688 0.140625 5.9625 -0.025 5.70937 0.003125C5.45625 0.03125 5.26562 0.24375 5.26562 0.5V4.69375C5.26562 4.8625 5.12812 5 4.95937 5C4.8 5 4.66875 4.87813 4.65312 4.71875L4.2625 0.45625C4.24063 0.196875 4.025 0 3.76562 0C3.50625 0 3.29062 0.196875 3.26875 0.45625L2.88125 4.71875C2.86562 4.87813 2.73438 5 2.575 5C2.40625 5 2.26875 4.8625 2.26875 4.69375V0.5H2.26562ZM3.775 5.25H3.76562H3.75625L3.76562 5.22813L3.775 5.25Z" fill="white"/>
</g>
<defs>
<clipPath id="clip0_38_53">
<path d="M0.265625 0H14.2656V16H0.265625V0Z" fill="white"/>
</clipPath>
</defs>
</svg>
