<svg width="22" height="24" viewBox="0 0 22 24" fill="none" xmlns="http://www.w3.org/2000/svg">
<g clip-path="url(#clip0_37_1696)">
<path d="M7.48281 0.253088C7.84844 -0.0890993 8.41562 -0.0844118 8.78125 0.257776C10.075 1.47184 11.2891 2.77965 12.4234 4.19528C12.9391 3.52028 13.525 2.78434 14.1578 2.18434C14.5281 1.83746 15.1 1.83746 15.4703 2.18903C17.0922 3.7359 18.4656 5.77965 19.4313 7.72028C20.3828 9.63278 21.0156 11.5875 21.0156 12.9656C21.0156 18.9468 16.3375 24 10.5156 24C4.62813 24 0.015625 18.9422 0.015625 12.9609C0.015625 11.1609 0.85 8.96246 2.14375 6.78746C3.45156 4.57965 5.29844 2.27809 7.48281 0.253088ZM10.5953 19.5C11.7812 19.5 12.8313 19.1718 13.8203 18.5156C15.7937 17.1375 16.3234 14.3812 15.1375 12.2156C14.9266 11.7937 14.3875 11.7656 14.0828 12.1218L12.9016 13.4953C12.5922 13.8515 12.0344 13.8422 11.7437 13.4718C10.9703 12.4875 9.5875 10.7297 8.8 9.73121C8.50469 9.35621 7.94219 9.35153 7.64219 9.72653C6.05781 11.7187 5.26094 12.975 5.26094 14.3859C5.26562 17.5968 7.6375 19.5 10.5953 19.5Z" fill="#F97316"/>
</g>
<defs>
<clipPath id="clip0_37_1696">
<path d="M0.015625 0H21.0156V24H0.015625V0Z" fill="white"/>
</clipPath>
</defs>
</svg>
