<svg width="21" height="20" viewBox="0 0 21 20" fill="none" xmlns="http://www.w3.org/2000/svg">
<g clip-path="url(#clip0_41_2227)">
<path d="M3.25 2.5C3.25 1.80859 2.69141 1.25 2 1.25C1.30859 1.25 0.75 1.80859 0.75 2.5V15.625C0.75 17.3516 2.14844 18.75 3.875 18.75H19.5C20.1914 18.75 20.75 18.1914 20.75 17.5C20.75 16.8086 20.1914 16.25 19.5 16.25H3.875C3.53125 16.25 3.25 15.9688 3.25 15.625V2.5ZM19.1328 5.88281C19.6211 5.39453 19.6211 4.60156 19.1328 4.11328C18.6445 3.625 17.8516 3.625 17.3633 4.11328L13.25 8.23047L11.0078 5.98828C10.5195 5.5 9.72656 5.5 9.23828 5.98828L4.86328 10.3633C4.375 10.8516 4.375 11.6445 4.86328 12.1328C5.35156 12.6211 6.14453 12.6211 6.63281 12.1328L10.125 8.64453L12.3672 10.8867C12.8555 11.375 13.6484 11.375 14.1367 10.8867L19.1367 5.88672L19.1328 5.88281Z" fill="#9CA3AF"/>
</g>
<defs>
<clipPath id="clip0_41_2227">
<path d="M0.75 0H20.75V20H0.75V0Z" fill="white"/>
</clipPath>
</defs>
</svg>
