<svg width="21" height="20" viewBox="0 0 21 20" fill="none" xmlns="http://www.w3.org/2000/svg">
<path d="M0.546875 0H20.5469V20H0.546875V0Z" stroke="#E5E7EB"/>
<path d="M19.918 6.50781C20.043 6.84766 19.9375 7.22656 19.668 7.46875L17.9766 9.00781C18.0195 9.33203 18.043 9.66406 18.043 10C18.043 10.3359 18.0195 10.668 17.9766 10.9922L19.668 12.5312C19.9375 12.7734 20.043 13.1523 19.918 13.4922C19.7461 13.957 19.5391 14.4023 19.3008 14.832L19.1172 15.1484C18.8594 15.5781 18.5703 15.9844 18.2539 16.3672C18.0234 16.6484 17.6406 16.7422 17.2969 16.6328L15.1211 15.9414C14.5977 16.3438 14.0195 16.6797 13.4024 16.9336L12.9141 19.1641C12.8359 19.5195 12.5625 19.8008 12.2031 19.8594C11.6641 19.9492 11.1094 19.9961 10.543 19.9961C9.97657 19.9961 9.42188 19.9492 8.88282 19.8594C8.52345 19.8008 8.25001 19.5195 8.17188 19.1641L7.6836 16.9336C7.06642 16.6797 6.48829 16.3438 5.96485 15.9414L3.79298 16.6367C3.44923 16.7461 3.06642 16.6484 2.83595 16.3711C2.51954 15.9883 2.23048 15.582 1.97267 15.1523L1.78907 14.8359C1.55079 14.4062 1.34376 13.9609 1.17189 13.4961C1.04689 13.1562 1.15235 12.7773 1.42189 12.5352L3.11329 10.9961C3.07032 10.668 3.04689 10.3359 3.04689 10C3.04689 9.66406 3.07032 9.33203 3.11329 9.00781L1.42189 7.46875C1.15235 7.22656 1.04689 6.84766 1.17189 6.50781C1.34376 6.04297 1.55079 5.59766 1.78907 5.16797L1.97267 4.85156C2.23048 4.42188 2.51954 4.01562 2.83595 3.63281C3.06642 3.35156 3.44923 3.25781 3.79298 3.36719L5.96876 4.05859C6.4922 3.65625 7.07032 3.32031 7.68751 3.06641L8.17579 0.835938C8.25392 0.480469 8.52735 0.199219 8.88673 0.140625C9.42579 0.046875 9.98048 0 10.5469 0C11.1133 0 11.668 0.046875 12.207 0.136719C12.5664 0.195312 12.8399 0.476562 12.918 0.832031L13.4063 3.0625C14.0234 3.31641 14.6016 3.65234 15.125 4.05469L17.3008 3.36328C17.6445 3.25391 18.0274 3.35156 18.2578 3.62891C18.5742 4.01172 18.8633 4.41797 19.1211 4.84766L19.3047 5.16406C19.543 5.59375 19.75 6.03906 19.9219 6.50391L19.918 6.50781ZM10.5469 13.125C11.3757 13.125 12.1705 12.7958 12.7566 12.2097C13.3426 11.6237 13.6719 10.8288 13.6719 10C13.6719 9.1712 13.3426 8.37634 12.7566 7.79029C12.1705 7.20424 11.3757 6.875 10.5469 6.875C9.71808 6.875 8.92323 7.20424 8.33718 7.79029C7.75112 8.37634 7.42189 9.1712 7.42189 10C7.42189 10.8288 7.75112 11.6237 8.33718 12.2097C8.92323 12.7958 9.71808 13.125 10.5469 13.125Z" fill="#F97316"/>
</svg>
