<svg width="16" height="16" viewBox="0 0 16 16" fill="none" xmlns="http://www.w3.org/2000/svg">
<g clip-path="url(#clip0_37_1754)">
<path d="M15.2969 8.18125C15.2969 12.6031 12.2688 15.75 7.79688 15.75C3.50938 15.75 0.046875 12.2875 0.046875 8C0.046875 3.7125 3.50938 0.25 7.79688 0.25C9.88437 0.25 11.6406 1.01562 12.9937 2.27813L10.8844 4.30625C8.125 1.64375 2.99375 3.64375 2.99375 8C2.99375 10.7031 5.15312 12.8938 7.79688 12.8938C10.8656 12.8938 12.0156 10.6938 12.1969 9.55313H7.79688V6.8875H15.175C15.2469 7.28437 15.2969 7.66562 15.2969 8.18125Z" fill="#374151"/>
</g>
<defs>
<clipPath id="clip0_37_1754">
<path d="M0.046875 0H15.2969V16H0.046875V0Z" fill="white"/>
</clipPath>
</defs>
</svg>
