<svg width="15" height="16" viewBox="0 0 15 16" fill="none" xmlns="http://www.w3.org/2000/svg">
<g clip-path="url(#clip0_38_119)">
<path d="M10.6406 1.5C10.6406 1.10218 10.4826 0.720644 10.2013 0.43934C9.91998 0.158035 9.53845 0 9.14062 0C8.7428 0 8.36127 0.158035 8.07996 0.43934C7.79866 0.720644 7.64062 1.10218 7.64062 1.5C7.64062 1.89782 7.79866 2.27936 8.07996 2.56066C8.36127 2.84196 8.7428 3 9.14062 3C9.53845 3 9.91998 2.84196 10.2013 2.56066C10.4826 2.27936 10.6406 1.89782 10.6406 1.5ZM4.56875 5.48438C4.87812 5.175 5.3 5 5.74062 5C5.8 5 5.85938 5.00313 5.91563 5.00938L4.94063 7.9375C4.65 8.8125 4.99375 9.775 5.77812 10.2656L8.47188 11.95L7.67812 14.725C7.525 15.2563 7.83437 15.8094 8.36562 15.9625C8.89688 16.1156 9.45 15.8062 9.60312 15.275L10.5 12.1375C10.6844 11.4937 10.4187 10.8062 9.85312 10.4531L8.07812 9.34375L9.04375 6.76875L9.20312 7.15312C9.67188 8.27187 10.7625 9 11.975 9H12.6406C13.1938 9 13.6406 8.55313 13.6406 8C13.6406 7.44688 13.1938 7 12.6406 7H11.975C11.5719 7 11.2063 6.75625 11.0531 6.38438L10.8562 5.91563C10.4 4.81875 9.47812 3.98125 8.34062 3.63125L6.81875 3.1625C6.47187 3.05625 6.10938 3 5.74375 3C4.775 3 3.84375 3.38438 3.15937 4.07188L2.43438 4.79375C2.04375 5.18437 2.04375 5.81875 2.43438 6.20937C2.825 6.6 3.45937 6.6 3.85 6.20937L4.57188 5.4875L4.56875 5.48438ZM3.49062 11H1.64062C1.0875 11 0.640625 11.4469 0.640625 12C0.640625 12.5531 1.0875 13 1.64062 13H3.81562C4.40937 13 4.94688 12.65 5.1875 12.1094L5.54688 11.3L5.25 11.1125C4.70312 10.7719 4.29688 10.275 4.06562 9.70938L3.49062 11Z" fill="#374151"/>
</g>
<defs>
<clipPath id="clip0_38_119">
<path d="M0.640625 0H14.6406V16H0.640625V0Z" fill="white"/>
</clipPath>
</defs>
</svg>
