<svg width="15" height="14" viewBox="0 0 15 14" fill="none" xmlns="http://www.w3.org/2000/svg">
<g clip-path="url(#clip0_37_4606)">
<path d="M11.9277 10.9266C11.4055 9.64961 10.1504 8.75 8.6875 8.75H6.9375C5.47461 8.75 4.21953 9.64961 3.69727 10.9266C2.72383 9.90391 2.125 8.52305 2.125 7C2.125 3.8582 4.6707 1.3125 7.8125 1.3125C10.9543 1.3125 13.5 3.8582 13.5 7C13.5 8.52305 12.9012 9.90391 11.9277 10.9266ZM10.8313 11.8207C9.95625 12.3703 8.92266 12.6875 7.8125 12.6875C6.70234 12.6875 5.66875 12.3703 4.79102 11.8207C4.99062 10.8172 5.87656 10.0625 6.9375 10.0625H8.6875C9.74844 10.0625 10.6344 10.8172 10.834 11.8207H10.8313ZM7.8125 14C9.66902 14 11.4495 13.2625 12.7622 11.9497C14.075 10.637 14.8125 8.85652 14.8125 7C14.8125 5.14348 14.075 3.36301 12.7622 2.05025C11.4495 0.737498 9.66902 0 7.8125 0C5.95598 0 4.17551 0.737498 2.86275 2.05025C1.55 3.36301 0.8125 5.14348 0.8125 7C0.8125 8.85652 1.55 10.637 2.86275 11.9497C4.17551 13.2625 5.95598 14 7.8125 14ZM7.8125 6.5625C7.52242 6.5625 7.24422 6.44727 7.0391 6.24215C6.83398 6.03703 6.71875 5.75883 6.71875 5.46875C6.71875 5.17867 6.83398 4.90047 7.0391 4.69535C7.24422 4.49023 7.52242 4.375 7.8125 4.375C8.10258 4.375 8.38078 4.49023 8.5859 4.69535C8.79102 4.90047 8.90625 5.17867 8.90625 5.46875C8.90625 5.75883 8.79102 6.03703 8.5859 6.24215C8.38078 6.44727 8.10258 6.5625 7.8125 6.5625ZM5.40625 5.46875C5.40625 6.10693 5.65976 6.71897 6.11102 7.17023C6.56228 7.62149 7.17432 7.875 7.8125 7.875C8.45068 7.875 9.06272 7.62149 9.51398 7.17023C9.96524 6.71897 10.2188 6.10693 10.2188 5.46875C10.2188 4.83057 9.96524 4.21853 9.51398 3.76727C9.06272 3.31601 8.45068 3.0625 7.8125 3.0625C7.17432 3.0625 6.56228 3.31601 6.11102 3.76727C5.65976 4.21853 5.40625 4.83057 5.40625 5.46875Z" fill="#374151"/>
</g>
<defs>
<clipPath id="clip0_37_4606">
<path d="M0.8125 0H14.8125V14H0.8125V0Z" fill="white"/>
</clipPath>
</defs>
</svg>
