<svg width="17" height="16" viewBox="0 0 17 16" fill="none" xmlns="http://www.w3.org/2000/svg">
<g clip-path="url(#clip0_37_1148)">
<path d="M16.0469 8.18125C16.0469 12.6031 13.0188 15.75 8.54688 15.75C4.25938 15.75 0.796875 12.2875 0.796875 8C0.796875 3.7125 4.25938 0.25 8.54688 0.25C10.6344 0.25 12.3906 1.01562 13.7437 2.27813L11.6344 4.30625C8.875 1.64375 3.74375 3.64375 3.74375 8C3.74375 10.7031 5.90312 12.8938 8.54688 12.8938C11.6156 12.8938 12.7656 10.6938 12.9469 9.55313H8.54688V6.8875H15.925C15.9969 7.28437 16.0469 7.66562 16.0469 8.18125Z" fill="#374151"/>
</g>
<defs>
<clipPath id="clip0_37_1148">
<path d="M0.796875 0H16.0469V16H0.796875V0Z" fill="white"/>
</clipPath>
</defs>
</svg>
