<svg width="15" height="17" viewBox="0 0 15 17" fill="none" xmlns="http://www.w3.org/2000/svg">
<g clip-path="url(#clip0_37_741)">
<path d="M10.0908 1.77271C10.0908 1.37488 9.93279 0.993349 9.65148 0.712045C9.37018 0.43074 8.98864 0.272705 8.59082 0.272705C8.193 0.272705 7.81146 0.43074 7.53016 0.712045C7.24886 0.993349 7.09082 1.37488 7.09082 1.77271C7.09082 2.17053 7.24886 2.55206 7.53016 2.83337C7.81146 3.11467 8.193 3.27271 8.59082 3.27271C8.98864 3.27271 9.37018 3.11467 9.65148 2.83337C9.93279 2.55206 10.0908 2.17053 10.0908 1.77271ZM4.01895 5.75708C4.32832 5.44771 4.7502 5.27271 5.19082 5.27271C5.2502 5.27271 5.30957 5.27583 5.36582 5.28208L4.39082 8.21021C4.1002 9.08521 4.44394 10.0477 5.22832 10.5383L7.92207 12.2227L7.12832 14.9977C6.9752 15.529 7.28457 16.0821 7.81582 16.2352C8.34707 16.3883 8.9002 16.079 9.05332 15.5477L9.9502 12.4102C10.1346 11.7665 9.86895 11.079 9.30332 10.7258L7.52832 9.61646L8.49395 7.04146L8.65332 7.42583C9.12207 8.54458 10.2127 9.27271 11.4252 9.27271H12.0908C12.6439 9.27271 13.0908 8.82583 13.0908 8.27271C13.0908 7.71958 12.6439 7.27271 12.0908 7.27271H11.4252C11.0221 7.27271 10.6564 7.02895 10.5033 6.65708L10.3064 6.18833C9.85019 5.09146 8.92832 4.25395 7.79082 3.90395L6.26895 3.4352C5.92207 3.32895 5.55957 3.27271 5.19395 3.27271C4.2252 3.27271 3.29395 3.65708 2.60957 4.34458L1.88457 5.06645C1.49395 5.45708 1.49395 6.09145 1.88457 6.48208C2.2752 6.8727 2.90957 6.8727 3.3002 6.48208L4.02207 5.76021L4.01895 5.75708ZM2.94082 11.2727H1.09082C0.537695 11.2727 0.0908203 11.7196 0.0908203 12.2727C0.0908203 12.8258 0.537695 13.2727 1.09082 13.2727H3.26582C3.85957 13.2727 4.39707 12.9227 4.6377 12.3821L4.99707 11.5727L4.7002 11.3852C4.15332 11.0446 3.74707 10.5477 3.51582 9.98208L2.94082 11.2727Z" fill="#F97316"/>
</g>
<defs>
<clipPath id="clip0_37_741">
<path d="M0.0908203 0.272705H14.0908V16.2727H0.0908203V0.272705Z" fill="white"/>
</clipPath>
</defs>
</svg>
